<svg id="svg" xmlns="http://www.w3.org/2000/svg" xmlns:xlink="http://www.w3.org/1999/xlink" width="400" height="216" viewBox="0, 0, 400,216"><g id="svgg"><path id="path0" d="M187.898 0.235 C 186.710 0.331,185.494 0.465,185.197 0.534 C 184.900 0.602,183.684 0.805,182.496 0.984 C 179.211 1.479,178.840 1.550,178.606 1.730 C 178.487 1.822,177.782 1.966,177.039 2.050 C 176.296 2.134,175.640 2.282,175.581 2.377 C 175.522 2.473,174.890 2.618,174.176 2.701 C 173.463 2.784,172.830 2.930,172.771 3.026 C 172.711 3.122,172.177 3.268,171.583 3.350 C 170.989 3.431,170.448 3.586,170.382 3.694 C 170.315 3.802,170.088 3.890,169.878 3.890 C 169.420 3.890,166.662 4.694,166.129 4.983 C 165.923 5.095,165.558 5.186,165.319 5.186 C 165.080 5.186,164.884 5.273,164.884 5.378 C 164.884 5.484,164.548 5.634,164.137 5.711 C 163.726 5.788,163.118 5.992,162.786 6.166 C 162.454 6.339,162.018 6.481,161.817 6.482 C 161.616 6.482,161.392 6.580,161.318 6.699 C 161.245 6.818,161.039 6.915,160.861 6.915 C 160.684 6.915,160.082 7.117,159.524 7.363 C 157.455 8.276,157.195 8.384,156.402 8.663 C 155.956 8.819,155.592 9.017,155.592 9.102 C 155.592 9.188,155.300 9.322,154.943 9.400 C 154.587 9.479,154.295 9.632,154.295 9.742 C 154.295 9.851,154.173 9.944,154.025 9.948 C 153.876 9.952,153.366 10.143,152.890 10.373 C 152.415 10.602,151.904 10.794,151.756 10.798 C 151.607 10.802,151.486 10.892,151.486 10.998 C 151.486 11.104,151.219 11.257,150.894 11.339 C 150.568 11.421,150.252 11.553,150.191 11.632 C 150.131 11.712,149.692 11.971,149.217 12.208 C 148.741 12.444,148.304 12.687,148.244 12.748 C 148.185 12.808,147.650 13.101,147.056 13.398 C 146.461 13.695,145.943 14.011,145.903 14.100 C 145.863 14.190,145.700 14.263,145.540 14.263 C 145.380 14.263,145.117 14.384,144.956 14.533 C 144.686 14.781,144.344 14.995,143.174 15.647 C 142.941 15.777,142.634 15.981,142.492 16.099 C 142.350 16.218,141.107 17.035,139.729 17.915 C 138.351 18.795,137.223 19.597,137.223 19.698 C 137.223 19.799,137.102 19.883,136.953 19.885 C 136.804 19.886,136.377 20.154,136.003 20.479 C 135.628 20.804,135.109 21.216,134.848 21.394 C 134.587 21.572,134.197 21.864,133.982 22.042 C 133.766 22.220,133.372 22.512,133.106 22.690 C 132.839 22.869,132.341 23.282,131.998 23.609 C 131.654 23.936,131.321 24.203,131.258 24.203 C 131.194 24.203,131.020 24.325,130.871 24.473 C 130.722 24.622,130.127 25.132,129.549 25.608 C 127.327 27.433,122.695 31.954,119.792 35.131 C 116.565 38.661,116.267 39.005,116.264 39.197 C 116.263 39.302,116.043 39.597,115.775 39.853 C 115.508 40.108,114.805 40.945,114.214 41.714 C 113.623 42.483,113.015 43.240,112.863 43.397 C 112.712 43.554,112.588 43.811,112.588 43.969 C 112.588 44.126,112.442 44.310,112.264 44.379 C 112.085 44.447,111.939 44.607,111.939 44.735 C 111.939 44.980,111.900 45.037,110.867 46.274 C 110.506 46.705,110.211 47.167,110.211 47.300 C 110.211 47.433,110.120 47.542,110.009 47.542 C 109.898 47.542,109.740 47.756,109.657 48.018 C 109.573 48.280,109.397 48.617,109.264 48.767 C 108.673 49.434,108.526 49.657,108.386 50.098 C 108.304 50.356,108.157 50.567,108.059 50.567 C 107.961 50.567,107.819 50.810,107.745 51.108 C 107.670 51.405,107.514 51.648,107.397 51.648 C 107.281 51.648,107.185 51.747,107.185 51.868 C 107.185 51.989,106.921 52.500,106.598 53.003 C 105.813 54.225,105.149 55.399,104.431 56.834 C 104.103 57.488,103.766 58.054,103.681 58.092 C 103.595 58.131,103.463 58.495,103.386 58.903 C 103.310 59.310,103.161 59.643,103.055 59.643 C 102.950 59.643,102.863 59.789,102.863 59.968 C 102.863 60.146,102.774 60.292,102.664 60.292 C 102.555 60.292,102.401 60.583,102.323 60.940 C 102.245 61.297,102.091 61.588,101.982 61.588 C 101.872 61.588,101.783 61.711,101.783 61.862 C 101.783 62.012,101.588 62.498,101.351 62.941 C 101.113 63.385,100.918 63.943,100.918 64.181 C 100.918 64.419,100.829 64.614,100.719 64.614 C 100.610 64.614,100.456 64.905,100.378 65.262 C 100.300 65.619,100.159 65.910,100.064 65.910 C 99.970 65.910,99.831 66.299,99.755 66.775 C 99.679 67.250,99.521 67.639,99.403 67.639 C 99.286 67.639,99.190 67.828,99.190 68.059 C 99.190 68.289,99.100 68.533,98.990 68.601 C 98.880 68.669,98.725 69.022,98.646 69.385 C 98.566 69.748,98.364 70.306,98.198 70.625 C 98.032 70.944,97.895 71.369,97.894 71.570 C 97.894 71.771,97.804 71.990,97.696 72.058 C 97.587 72.125,97.433 72.567,97.353 73.042 C 97.273 73.516,97.127 73.953,97.029 74.014 C 96.930 74.075,96.782 74.537,96.699 75.042 C 96.616 75.546,96.473 76.056,96.381 76.175 C 96.289 76.294,96.149 76.731,96.069 77.147 C 95.988 77.563,95.842 78.098,95.743 78.336 C 95.340 79.303,94.868 81.125,94.868 81.710 C 94.868 82.053,94.786 82.334,94.687 82.334 C 94.518 82.334,94.356 83.079,93.723 86.764 C 93.580 87.596,93.400 88.374,93.323 88.493 C 93.246 88.612,93.113 89.487,93.027 90.438 C 92.941 91.388,92.791 92.266,92.694 92.389 C 92.596 92.511,92.448 93.851,92.364 95.367 C 92.279 96.883,92.128 98.174,92.026 98.237 C 91.785 98.386,91.786 117.930,92.027 118.079 C 92.129 118.142,92.282 119.384,92.367 120.839 C 92.452 122.294,92.588 123.586,92.668 123.709 C 92.749 123.832,92.929 124.760,93.069 125.770 C 93.209 126.780,93.471 128.336,93.652 129.227 C 93.832 130.119,94.087 131.432,94.218 132.145 C 94.348 132.858,94.548 133.610,94.661 133.817 C 94.775 134.023,94.868 134.377,94.868 134.602 C 94.868 135.046,95.449 137.122,95.725 137.664 C 95.818 137.846,95.964 138.405,96.048 138.905 C 96.133 139.405,96.282 139.863,96.379 139.923 C 96.476 139.984,96.623 140.519,96.705 141.113 C 96.786 141.707,96.941 142.193,97.049 142.193 C 97.157 142.193,97.245 142.412,97.246 142.680 C 97.247 142.947,97.389 143.437,97.562 143.769 C 97.735 144.101,97.940 144.709,98.017 145.120 C 98.094 145.531,98.244 145.867,98.349 145.867 C 98.455 145.867,98.542 146.037,98.543 146.245 C 98.543 146.453,98.689 146.902,98.867 147.242 C 99.044 147.583,99.190 147.996,99.190 148.161 C 99.190 148.326,99.278 148.460,99.387 148.460 C 99.495 148.460,99.650 148.849,99.730 149.325 C 99.810 149.800,99.957 150.189,100.056 150.189 C 100.155 150.189,100.300 150.481,100.378 150.837 C 100.456 151.194,100.610 151.486,100.719 151.486 C 100.829 151.486,100.918 151.681,100.918 151.919 C 100.918 152.157,101.113 152.715,101.351 153.158 C 101.588 153.602,101.783 154.087,101.783 154.238 C 101.783 154.388,101.872 154.511,101.982 154.511 C 102.091 154.511,102.245 154.803,102.323 155.159 C 102.401 155.516,102.532 155.808,102.613 155.808 C 102.774 155.808,103.512 157.405,103.512 157.754 C 103.512 157.872,103.601 157.969,103.711 157.969 C 103.820 157.969,103.974 158.260,104.052 158.617 C 104.130 158.974,104.262 159.265,104.346 159.265 C 104.429 159.265,104.610 159.533,104.747 159.860 C 104.884 160.186,105.347 161.037,105.775 161.750 C 106.203 162.464,106.610 163.217,106.678 163.425 C 106.747 163.633,106.889 163.803,106.994 163.803 C 107.099 163.803,107.185 163.949,107.185 164.127 C 107.185 164.306,107.276 164.452,107.387 164.452 C 107.498 164.452,107.656 164.666,107.740 164.928 C 107.823 165.190,108.024 165.537,108.186 165.700 C 108.349 165.862,108.482 166.134,108.482 166.304 C 108.482 166.474,108.579 166.613,108.698 166.613 C 108.817 166.613,108.914 166.762,108.914 166.944 C 108.914 167.126,109.051 167.327,109.219 167.391 C 109.386 167.456,109.583 167.744,109.655 168.033 C 109.727 168.321,109.882 168.558,109.999 168.558 C 110.115 168.558,110.211 168.666,110.211 168.799 C 110.211 168.932,110.506 169.394,110.867 169.826 C 111.853 171.006,111.939 171.122,111.939 171.258 C 111.939 171.383,112.805 172.673,113.028 172.880 C 113.092 172.939,113.627 173.620,114.217 174.392 C 114.807 175.165,115.508 176.011,115.775 176.273 C 116.043 176.535,116.263 176.826,116.264 176.921 C 116.275 177.622,126.067 187.623,129.551 190.492 C 130.128 190.967,130.722 191.478,130.871 191.626 C 131.020 191.775,131.194 191.896,131.258 191.896 C 131.321 191.896,131.654 192.164,131.998 192.491 C 132.341 192.817,132.839 193.231,133.106 193.409 C 133.372 193.587,133.799 193.901,134.056 194.107 C 134.312 194.313,134.619 194.557,134.738 194.649 C 134.857 194.742,135.357 195.133,135.850 195.518 C 136.342 195.903,136.853 196.218,136.984 196.218 C 137.116 196.218,137.223 196.308,137.223 196.417 C 137.223 196.526,137.588 196.838,138.033 197.110 C 138.479 197.382,138.876 197.682,138.916 197.776 C 138.956 197.870,139.087 197.947,139.209 197.947 C 139.331 197.947,139.798 198.239,140.249 198.595 C 140.699 198.952,141.175 199.244,141.306 199.244 C 141.438 199.244,141.545 199.341,141.545 199.460 C 141.545 199.579,141.684 199.676,141.854 199.676 C 142.024 199.676,142.295 199.797,142.457 199.946 C 142.833 200.290,143.450 200.687,144.138 201.026 C 144.435 201.172,144.807 201.414,144.964 201.564 C 145.121 201.714,145.380 201.837,145.540 201.837 C 145.700 201.837,145.863 201.910,145.903 201.999 C 145.943 202.088,146.291 202.331,146.677 202.539 C 147.064 202.747,147.696 203.088,148.082 203.296 C 148.468 203.504,148.834 203.739,148.894 203.819 C 148.955 203.898,149.271 204.030,149.597 204.112 C 149.923 204.194,150.189 204.340,150.189 204.436 C 150.189 204.533,150.481 204.676,150.837 204.754 C 151.194 204.833,151.486 204.978,151.486 205.078 C 151.486 205.178,151.777 205.324,152.134 205.402 C 152.491 205.481,152.782 205.624,152.782 205.720 C 152.782 205.816,153.123 205.958,153.539 206.037 C 153.955 206.115,154.296 206.247,154.297 206.331 C 154.299 206.414,154.712 206.664,155.216 206.886 C 155.720 207.108,156.390 207.424,156.705 207.588 C 157.021 207.753,157.434 207.888,157.624 207.888 C 157.813 207.888,157.969 207.985,157.969 208.104 C 157.969 208.223,158.139 208.323,158.347 208.327 C 158.555 208.331,159.114 208.522,159.589 208.752 C 160.065 208.982,160.624 209.173,160.832 209.177 C 161.040 209.181,161.210 209.281,161.210 209.400 C 161.210 209.519,161.414 209.616,161.664 209.616 C 161.913 209.616,162.424 209.751,162.798 209.915 C 163.173 210.079,163.834 210.371,164.268 210.563 C 164.702 210.756,165.256 210.913,165.498 210.913 C 165.740 210.913,165.994 211.002,166.061 211.110 C 166.128 211.219,166.571 211.373,167.045 211.453 C 167.519 211.533,167.956 211.679,168.016 211.776 C 168.077 211.873,168.612 212.020,169.206 212.102 C 169.800 212.183,170.336 212.331,170.398 212.431 C 170.459 212.530,171.043 212.678,171.694 212.760 C 172.346 212.841,172.880 212.983,172.880 213.074 C 172.880 213.165,173.439 213.310,174.122 213.394 C 174.806 213.479,175.462 213.624,175.581 213.716 C 175.700 213.808,176.089 213.941,176.445 214.011 C 176.802 214.081,177.871 214.296,178.822 214.488 C 179.773 214.681,181.426 214.958,182.496 215.105 C 183.566 215.251,184.587 215.433,184.765 215.508 C 186.708 216.330,213.675 216.282,215.559 215.453 C 215.797 215.348,216.769 215.198,217.720 215.118 C 218.671 215.039,219.546 214.911,219.665 214.835 C 219.872 214.700,222.016 214.266,223.717 214.013 C 224.163 213.947,224.527 213.816,224.527 213.721 C 224.527 213.626,225.111 213.481,225.824 213.398 C 226.538 213.315,227.171 213.167,227.232 213.068 C 227.293 212.969,227.877 212.822,228.529 212.740 C 229.180 212.659,229.714 212.519,229.714 212.429 C 229.714 212.339,230.196 212.201,230.785 212.123 C 231.375 212.045,231.915 211.887,231.987 211.771 C 232.058 211.656,232.329 211.561,232.590 211.560 C 232.850 211.559,233.311 211.430,233.613 211.272 C 233.915 211.114,234.460 210.925,234.823 210.853 C 235.186 210.780,236.027 210.472,236.691 210.169 C 237.355 209.865,238.098 209.616,238.344 209.616 C 238.589 209.616,238.790 209.519,238.790 209.400 C 238.790 209.281,238.960 209.181,239.168 209.177 C 239.376 209.173,239.935 208.982,240.411 208.752 C 240.886 208.522,241.445 208.331,241.653 208.327 C 241.861 208.323,242.031 208.223,242.031 208.104 C 242.031 207.985,242.194 207.888,242.392 207.888 C 242.771 207.888,245.519 206.624,245.705 206.364 C 245.764 206.281,246.129 206.145,246.515 206.061 C 246.902 205.977,247.218 205.827,247.218 205.727 C 247.218 205.627,247.509 205.481,247.866 205.402 C 248.223 205.324,248.514 205.178,248.514 205.078 C 248.514 204.978,248.806 204.833,249.163 204.754 C 249.519 204.676,249.811 204.533,249.811 204.436 C 249.811 204.340,250.077 204.194,250.403 204.112 C 250.729 204.030,251.045 203.898,251.106 203.819 C 251.166 203.739,251.532 203.504,251.918 203.296 C 252.304 203.088,252.936 202.747,253.323 202.539 C 253.709 202.331,254.057 202.088,254.097 201.999 C 254.137 201.910,254.300 201.837,254.460 201.837 C 254.620 201.837,254.879 201.714,255.036 201.564 C 255.193 201.414,255.565 201.172,255.862 201.026 C 256.530 200.697,257.231 200.260,257.374 200.083 C 257.434 200.010,257.701 199.882,257.969 199.798 C 258.236 199.715,258.455 199.556,258.455 199.445 C 258.455 199.334,258.562 199.244,258.694 199.244 C 258.825 199.244,259.301 198.952,259.751 198.595 C 260.202 198.239,260.669 197.947,260.791 197.947 C 260.913 197.947,261.044 197.870,261.084 197.776 C 261.124 197.682,261.521 197.382,261.967 197.110 C 262.412 196.838,262.777 196.526,262.777 196.417 C 262.777 196.308,262.908 196.218,263.068 196.218 C 263.228 196.218,263.593 196.018,263.878 195.773 C 265.010 194.802,265.298 194.577,266.074 194.057 C 266.517 193.760,266.880 193.444,266.881 193.355 C 266.882 193.266,267.009 193.193,267.163 193.193 C 267.317 193.193,267.682 192.905,267.973 192.554 C 268.265 192.202,268.601 191.910,268.720 191.905 C 268.839 191.900,269.387 191.483,269.938 190.978 C 270.489 190.473,271.459 189.622,272.095 189.087 C 274.774 186.831,283.365 177.856,283.703 176.958 C 283.743 176.852,284.035 176.492,284.351 176.159 C 284.891 175.591,285.152 175.265,286.372 173.636 C 286.639 173.279,286.909 172.939,286.973 172.880 C 287.266 172.605,288.061 171.362,288.061 171.177 C 288.061 171.064,288.134 170.938,288.224 170.899 C 288.504 170.776,289.789 169.049,289.789 168.797 C 289.789 168.665,289.885 168.558,290.001 168.558 C 290.118 168.558,290.273 168.321,290.345 168.033 C 290.417 167.744,290.614 167.456,290.781 167.391 C 290.949 167.327,291.086 167.126,291.086 166.944 C 291.086 166.762,291.181 166.613,291.298 166.613 C 291.414 166.613,291.571 166.370,291.645 166.072 C 291.720 165.775,291.868 165.532,291.974 165.532 C 292.080 165.532,292.166 165.386,292.166 165.208 C 292.166 165.030,292.262 164.884,292.378 164.884 C 292.495 164.884,292.651 164.641,292.726 164.344 C 292.801 164.046,292.937 163.803,293.029 163.803 C 293.121 163.803,293.258 163.633,293.333 163.425 C 293.409 163.217,293.811 162.464,294.227 161.750 C 294.643 161.037,295.101 160.211,295.245 159.914 C 295.389 159.616,295.565 159.325,295.635 159.265 C 295.847 159.087,297.137 156.334,297.137 156.061 C 297.137 155.922,297.226 155.808,297.336 155.808 C 297.445 155.808,297.599 155.516,297.677 155.159 C 297.755 154.803,297.901 154.511,298.001 154.511 C 298.101 154.511,298.247 154.219,298.325 153.863 C 298.404 153.506,298.556 153.214,298.664 153.214 C 298.772 153.214,298.923 152.825,298.999 152.350 C 299.075 151.875,299.214 151.486,299.308 151.486 C 299.402 151.486,299.544 151.194,299.622 150.837 C 299.700 150.481,299.854 150.189,299.963 150.189 C 300.073 150.189,300.162 150.000,300.162 149.770 C 300.162 149.539,300.252 149.295,300.362 149.227 C 300.471 149.159,300.626 148.806,300.706 148.443 C 300.786 148.080,300.987 147.522,301.154 147.203 C 301.320 146.884,301.457 146.453,301.457 146.245 C 301.458 146.037,301.545 145.867,301.651 145.867 C 301.756 145.867,301.906 145.531,301.983 145.120 C 302.060 144.709,302.265 144.101,302.438 143.769 C 302.611 143.437,302.753 142.953,302.754 142.692 C 302.755 142.432,302.847 142.162,302.959 142.093 C 303.071 142.024,303.228 141.532,303.308 141.000 C 303.387 140.468,303.528 140.032,303.620 140.032 C 303.712 140.032,303.838 139.765,303.901 139.438 C 304.105 138.372,304.510 136.907,304.697 136.553 C 304.798 136.362,304.949 135.730,305.034 135.148 C 305.118 134.566,305.262 133.992,305.355 133.874 C 305.447 133.755,305.592 133.097,305.677 132.412 C 305.762 131.727,305.909 131.119,306.004 131.060 C 306.099 131.001,306.245 130.223,306.328 129.331 C 306.412 128.439,306.556 127.662,306.648 127.605 C 306.740 127.548,306.886 126.698,306.971 125.717 C 307.056 124.736,307.204 123.834,307.301 123.714 C 307.398 123.594,307.547 122.302,307.632 120.844 C 307.718 119.386,307.871 118.142,307.973 118.079 C 308.214 117.930,308.215 98.109,307.974 98.109 C 307.873 98.109,307.723 96.923,307.641 95.474 C 307.560 94.024,307.411 92.736,307.312 92.611 C 307.213 92.485,307.062 91.557,306.977 90.548 C 306.892 89.539,306.758 88.615,306.680 88.495 C 306.601 88.375,306.420 87.596,306.277 86.764 C 305.653 83.129,305.484 82.334,305.334 82.334 C 305.246 82.334,305.107 81.750,305.024 81.037 C 304.941 80.324,304.786 79.686,304.679 79.619 C 304.572 79.553,304.484 79.349,304.484 79.166 C 304.484 78.759,303.839 77.353,303.485 76.989 C 303.343 76.843,303.193 76.648,303.153 76.557 C 302.986 76.180,301.432 75.186,300.816 75.063 C 300.451 74.990,300.101 74.846,300.037 74.742 C 299.886 74.498,297.630 74.497,297.479 74.741 C 297.415 74.844,297.024 74.983,296.608 75.051 C 296.193 75.118,295.688 75.301,295.487 75.458 C 294.575 76.167,293.247 77.673,293.247 77.999 C 293.247 78.196,293.130 78.474,292.988 78.617 C 292.658 78.947,292.638 82.398,292.963 82.800 C 293.093 82.960,293.270 83.621,293.357 84.270 C 293.445 84.919,293.597 85.600,293.696 85.783 C 293.795 85.966,293.980 86.699,294.109 87.412 C 294.237 88.125,294.491 89.487,294.673 90.438 C 294.855 91.388,295.060 92.653,295.128 93.247 C 295.196 93.841,295.328 94.377,295.421 94.438 C 295.514 94.498,295.660 95.838,295.746 97.415 C 295.832 98.992,295.985 100.334,296.087 100.397 C 296.189 100.460,296.272 103.904,296.272 108.050 C 296.272 112.196,296.189 115.639,296.087 115.702 C 295.985 115.765,295.832 117.107,295.746 118.685 C 295.660 120.262,295.510 121.651,295.413 121.770 C 295.316 121.890,295.182 122.474,295.116 123.069 C 294.988 124.225,294.402 127.607,294.329 127.607 C 294.289 127.607,294.115 128.419,293.472 131.605 C 293.340 132.258,293.144 132.988,293.036 133.225 C 292.928 133.463,292.774 133.998,292.694 134.414 C 292.614 134.830,292.474 135.267,292.382 135.386 C 292.290 135.505,292.144 136.040,292.056 136.575 C 291.969 137.110,291.836 137.596,291.760 137.655 C 291.557 137.815,290.867 139.863,290.869 140.303 C 290.869 140.511,290.773 140.681,290.654 140.681 C 290.535 140.681,290.437 140.851,290.436 141.059 C 290.436 141.267,290.290 141.716,290.112 142.056 C 289.935 142.396,289.789 142.785,289.788 142.920 C 289.787 143.055,289.651 143.427,289.484 143.746 C 289.318 144.064,289.116 144.624,289.036 144.988 C 288.956 145.353,288.809 145.651,288.709 145.651 C 288.609 145.651,288.462 145.949,288.381 146.314 C 288.301 146.678,288.100 147.238,287.933 147.556 C 287.767 147.875,287.630 148.250,287.630 148.388 C 287.629 148.527,287.552 148.673,287.459 148.712 C 287.366 148.752,286.806 149.757,286.216 150.945 C 285.626 152.134,285.078 153.156,284.998 153.217 C 284.919 153.277,284.786 153.593,284.705 153.919 C 284.623 154.245,284.469 154.511,284.363 154.511 C 284.257 154.511,284.171 154.650,284.171 154.820 C 284.171 154.990,284.049 155.259,283.901 155.418 C 283.638 155.699,283.339 156.202,282.516 157.743 C 282.297 158.153,281.996 158.622,281.848 158.785 C 281.699 158.947,281.578 159.209,281.578 159.366 C 281.578 159.523,281.432 159.707,281.253 159.776 C 281.075 159.844,280.929 160.049,280.929 160.231 C 280.929 160.413,280.839 160.562,280.728 160.562 C 280.617 160.562,280.458 160.781,280.374 161.048 C 280.291 161.316,280.158 161.583,280.079 161.642 C 279.999 161.702,279.599 162.234,279.189 162.826 C 278.314 164.089,278.245 164.182,277.684 164.863 C 277.448 165.148,277.256 165.461,277.256 165.558 C 277.256 165.654,276.964 166.032,276.607 166.397 C 276.251 166.761,275.959 167.146,275.959 167.252 C 275.959 167.357,275.692 167.720,275.365 168.058 C 274.536 168.914,273.056 170.699,272.969 170.949 C 272.895 171.157,272.158 171.940,268.480 175.719 C 266.473 177.781,263.836 180.232,262.669 181.120 C 262.312 181.391,261.824 181.812,261.585 182.054 C 261.345 182.297,260.567 182.928,259.856 183.457 C 259.145 183.985,258.466 184.520,258.347 184.645 C 258.228 184.771,257.645 185.210,257.050 185.622 C 256.456 186.033,255.860 186.471,255.726 186.594 C 255.592 186.717,255.300 186.939,255.078 187.088 C 250.673 190.023,247.486 191.985,246.515 192.358 C 246.189 192.484,245.921 192.664,245.921 192.758 C 245.921 192.853,245.655 192.997,245.329 193.079 C 245.003 193.160,244.687 193.294,244.627 193.375 C 244.460 193.597,240.413 195.570,240.123 195.570 C 239.984 195.570,239.870 195.667,239.870 195.786 C 239.870 195.905,239.694 196.002,239.479 196.002 C 239.264 196.002,238.900 196.145,238.669 196.319 C 238.438 196.494,238.104 196.640,237.925 196.645 C 237.747 196.649,237.358 196.780,237.061 196.935 C 236.764 197.090,236.010 197.400,235.386 197.625 C 234.762 197.849,234.252 198.102,234.252 198.187 C 234.252 198.272,233.863 198.407,233.387 198.487 C 232.912 198.568,232.523 198.711,232.523 198.806 C 232.523 198.901,232.085 199.044,231.551 199.124 C 231.016 199.205,230.578 199.350,230.578 199.448 C 230.578 199.547,230.140 199.692,229.606 199.773 C 229.071 199.853,228.633 199.997,228.633 200.093 C 228.633 200.190,228.151 200.332,227.562 200.411 C 226.972 200.489,226.437 200.638,226.373 200.742 C 226.308 200.847,225.770 200.999,225.176 201.080 C 224.582 201.162,224.041 201.317,223.975 201.425 C 223.908 201.533,223.573 201.621,223.231 201.621 C 222.888 201.621,222.554 201.708,222.487 201.816 C 222.421 201.923,221.759 202.079,221.016 202.164 C 220.273 202.248,219.568 202.393,219.449 202.485 C 219.330 202.578,218.507 202.725,217.621 202.812 C 216.734 202.899,215.859 203.053,215.676 203.154 C 215.361 203.329,213.814 203.522,208.860 204.006 C 206.056 204.280,193.929 204.279,191.140 204.004 C 187.494 203.646,184.452 203.249,184.225 203.102 C 184.106 203.025,183.254 202.892,182.331 202.806 C 181.408 202.720,180.605 202.572,180.546 202.476 C 180.487 202.381,179.807 202.235,179.036 202.153 C 178.265 202.070,177.634 201.917,177.634 201.812 C 177.634 201.707,177.299 201.621,176.890 201.621 C 176.481 201.621,176.092 201.533,176.025 201.425 C 175.959 201.317,175.418 201.162,174.824 201.080 C 174.230 200.999,173.693 200.849,173.631 200.749 C 173.569 200.648,173.081 200.500,172.548 200.420 C 172.014 200.340,171.528 200.194,171.467 200.096 C 171.406 199.997,170.921 199.852,170.389 199.772 C 169.857 199.692,169.422 199.547,169.422 199.448 C 169.422 199.350,168.984 199.205,168.449 199.124 C 167.915 199.044,167.477 198.893,167.477 198.789 C 167.477 198.686,167.088 198.538,166.613 198.462 C 166.137 198.386,165.748 198.259,165.748 198.179 C 165.748 198.099,165.384 197.905,164.938 197.748 C 164.161 197.473,162.954 196.969,161.502 196.311 C 161.127 196.141,160.665 196.002,160.475 196.002 C 160.285 196.002,160.130 195.913,160.130 195.803 C 160.130 195.694,159.838 195.540,159.481 195.462 C 159.125 195.384,158.833 195.230,158.833 195.121 C 158.833 195.011,158.721 194.922,158.585 194.922 C 158.299 194.922,155.539 193.590,155.373 193.372 C 155.313 193.292,154.997 193.160,154.671 193.079 C 154.345 192.997,154.079 192.853,154.079 192.758 C 154.079 192.664,153.811 192.481,153.485 192.353 C 153.158 192.224,152.744 192.023,152.566 191.905 C 152.388 191.788,151.218 191.070,149.967 190.310 C 147.747 188.961,144.354 186.736,144.138 186.488 C 144.079 186.419,143.544 186.028,142.950 185.618 C 142.355 185.208,141.821 184.811,141.761 184.734 C 141.702 184.658,141.118 184.195,140.465 183.705 C 139.412 182.916,138.224 181.926,136.678 180.548 C 136.410 180.309,135.583 179.580,134.840 178.928 C 132.939 177.258,127.066 171.223,127.066 170.939 C 127.066 170.871,126.787 170.509,126.446 170.135 C 126.104 169.762,125.351 168.840,124.771 168.088 C 124.191 167.336,123.498 166.507,123.231 166.245 C 122.963 165.983,122.744 165.682,122.744 165.576 C 122.744 165.469,122.552 165.148,122.316 164.863 C 121.648 164.053,121.616 164.007,120.473 162.291 C 119.880 161.399,119.322 160.637,119.233 160.598 C 119.144 160.558,119.071 160.385,119.071 160.213 C 119.071 160.041,118.925 159.844,118.747 159.776 C 118.568 159.707,118.422 159.523,118.422 159.366 C 118.422 159.209,118.300 158.952,118.150 158.794 C 118.000 158.637,117.760 158.266,117.617 157.969 C 117.474 157.672,117.061 156.942,116.699 156.348 C 116.337 155.754,115.982 155.097,115.910 154.889 C 115.838 154.681,115.704 154.511,115.611 154.511 C 115.519 154.511,115.377 154.245,115.295 153.919 C 115.214 153.593,115.081 153.277,115.001 153.217 C 114.779 153.048,112.588 148.566,112.588 148.280 C 112.588 148.141,112.511 148.028,112.416 148.028 C 112.322 148.028,112.063 147.493,111.841 146.840 C 111.619 146.186,111.363 145.651,111.273 145.651 C 111.183 145.651,111.044 145.353,110.964 144.988 C 110.884 144.624,110.682 144.064,110.516 143.746 C 110.349 143.427,110.213 143.055,110.212 142.920 C 110.211 142.785,110.065 142.396,109.888 142.056 C 109.710 141.716,109.564 141.267,109.564 141.059 C 109.563 140.851,109.476 140.681,109.371 140.681 C 109.265 140.681,109.114 140.245,109.034 139.713 C 108.954 139.181,108.809 138.696,108.710 138.635 C 108.611 138.574,108.465 138.171,108.384 137.739 C 108.303 137.307,108.146 136.771,108.035 136.548 C 107.924 136.325,107.744 135.962,107.636 135.742 C 107.527 135.522,107.369 134.889,107.286 134.335 C 107.203 133.781,107.059 133.280,106.965 133.222 C 106.871 133.164,106.730 132.606,106.653 131.982 C 106.576 131.359,106.427 130.654,106.323 130.416 C 106.218 130.178,106.024 129.400,105.892 128.687 C 105.759 127.974,105.505 126.613,105.327 125.662 C 104.820 122.955,104.384 119.780,104.242 117.774 C 104.171 116.764,104.026 115.845,103.920 115.732 C 103.662 115.457,103.669 100.633,103.928 100.367 C 104.037 100.254,104.169 99.433,104.220 98.541 C 104.333 96.567,104.796 92.719,104.975 92.274 C 105.047 92.096,105.227 91.221,105.375 90.330 C 105.785 87.856,106.121 86.150,106.267 85.791 C 106.407 85.451,106.774 83.937,107.226 81.848 C 107.374 81.164,107.571 80.605,107.664 80.605 C 107.757 80.605,107.834 80.368,107.834 80.078 C 107.834 79.787,107.922 79.495,108.031 79.428 C 108.139 79.361,108.294 78.918,108.374 78.444 C 108.454 77.970,108.600 77.532,108.698 77.472 C 108.796 77.411,108.942 76.973,109.022 76.499 C 109.102 76.025,109.257 75.582,109.365 75.515 C 109.474 75.448,109.563 75.229,109.564 75.028 C 109.564 74.827,109.710 74.384,109.888 74.043 C 110.065 73.703,110.211 73.314,110.212 73.179 C 110.213 73.044,110.349 72.673,110.516 72.354 C 110.682 72.035,110.884 71.476,110.964 71.111 C 111.044 70.747,111.199 70.448,111.308 70.448 C 111.418 70.448,111.507 70.358,111.507 70.247 C 111.507 69.864,114.696 63.124,114.990 62.885 C 115.063 62.825,115.198 62.534,115.289 62.237 C 115.380 61.939,115.525 61.648,115.610 61.588 C 115.754 61.488,116.535 60.136,117.482 58.347 C 117.702 57.931,117.936 57.542,118.002 57.483 C 118.067 57.423,118.354 56.985,118.639 56.510 C 118.923 56.035,119.215 55.597,119.288 55.538 C 119.360 55.478,119.900 54.700,120.488 53.809 C 121.075 52.917,121.629 52.156,121.718 52.116 C 121.807 52.076,121.880 51.903,121.880 51.731 C 121.880 51.559,122.022 51.364,122.196 51.297 C 122.370 51.230,122.576 50.975,122.653 50.730 C 122.731 50.484,123.027 50.069,123.310 49.806 C 123.593 49.544,123.825 49.219,123.825 49.084 C 123.825 48.949,123.907 48.838,124.007 48.838 C 124.106 48.838,124.422 48.510,124.709 48.108 C 125.390 47.154,126.683 45.615,128.091 44.083 C 128.714 43.406,129.443 42.572,129.712 42.230 C 130.353 41.414,133.139 38.666,134.840 37.172 C 135.583 36.520,136.410 35.790,136.678 35.551 C 138.193 34.202,139.399 33.193,140.368 32.466 C 140.969 32.016,141.601 31.523,141.773 31.371 C 142.641 30.603,147.485 27.278,149.610 25.990 C 150.939 25.186,152.220 24.409,152.458 24.264 C 152.696 24.119,153.158 23.891,153.485 23.756 C 153.811 23.622,154.079 23.433,154.079 23.335 C 154.079 23.237,154.371 23.093,154.727 23.015 C 155.084 22.936,155.375 22.783,155.375 22.673 C 155.375 22.564,155.491 22.474,155.633 22.474 C 155.925 22.474,158.667 21.149,158.835 20.926 C 158.896 20.846,159.212 20.713,159.538 20.631 C 159.863 20.549,160.130 20.396,160.130 20.290 C 160.130 20.184,160.285 20.097,160.475 20.097 C 160.665 20.097,161.127 19.958,161.502 19.789 C 161.876 19.619,162.669 19.273,163.263 19.021 C 163.857 18.768,164.538 18.477,164.776 18.375 C 165.014 18.273,165.719 18.016,166.343 17.804 C 166.967 17.592,167.477 17.352,167.477 17.270 C 167.477 17.188,167.915 17.055,168.449 16.975 C 168.984 16.895,169.422 16.749,169.422 16.651 C 169.422 16.553,169.857 16.407,170.389 16.328 C 170.921 16.248,171.405 16.104,171.465 16.007 C 171.525 15.911,171.984 15.766,172.486 15.686 C 172.988 15.606,173.500 15.460,173.625 15.363 C 173.750 15.266,174.270 15.122,174.780 15.044 C 175.290 14.966,175.874 14.818,176.076 14.714 C 176.443 14.525,178.138 14.132,179.579 13.901 C 179.995 13.834,180.432 13.703,180.551 13.610 C 180.670 13.517,181.522 13.371,182.445 13.286 C 183.368 13.201,184.169 13.056,184.226 12.964 C 184.283 12.872,185.327 12.727,186.546 12.641 C 187.765 12.556,188.899 12.375,189.066 12.240 C 189.495 11.891,210.502 11.890,210.934 12.238 C 211.101 12.373,212.210 12.553,213.398 12.638 C 214.587 12.724,215.656 12.869,215.775 12.962 C 215.894 13.054,216.672 13.200,217.504 13.285 C 218.336 13.371,219.114 13.517,219.233 13.610 C 219.352 13.703,219.789 13.834,220.205 13.901 C 221.565 14.120,223.550 14.583,223.783 14.736 C 223.909 14.818,224.517 14.952,225.134 15.034 C 225.751 15.116,226.256 15.258,226.256 15.351 C 226.256 15.443,226.742 15.585,227.337 15.667 C 227.931 15.749,228.417 15.895,228.417 15.993 C 228.417 16.090,228.814 16.237,229.299 16.318 C 229.784 16.400,230.441 16.603,230.758 16.768 C 231.075 16.934,231.553 17.070,231.821 17.071 C 232.088 17.071,232.307 17.145,232.307 17.234 C 232.307 17.323,232.896 17.584,233.615 17.814 C 234.335 18.044,234.973 18.312,235.033 18.408 C 235.093 18.505,235.295 18.585,235.483 18.585 C 235.671 18.585,236.273 18.792,236.821 19.046 C 237.369 19.300,238.012 19.586,238.250 19.683 C 238.487 19.779,239.138 20.057,239.696 20.302 C 240.254 20.546,240.806 20.746,240.921 20.746 C 241.036 20.746,241.163 20.825,241.203 20.922 C 241.288 21.132,244.014 22.474,244.353 22.474 C 244.483 22.474,244.621 22.547,244.661 22.636 C 244.700 22.726,245.073 22.981,245.489 23.203 C 247.936 24.512,248.658 24.927,248.964 25.198 C 249.151 25.364,249.369 25.500,249.447 25.500 C 249.670 25.500,251.856 26.868,251.936 27.058 C 251.976 27.152,252.101 27.229,252.215 27.229 C 252.457 27.229,253.776 28.126,253.881 28.363 C 253.920 28.452,254.041 28.525,254.148 28.525 C 254.331 28.525,257.535 30.766,258.239 31.387 C 258.486 31.605,260.238 32.924,261.256 33.659 C 261.311 33.699,261.230 33.933,261.076 34.180 C 260.921 34.427,260.741 35.155,260.675 35.797 C 260.608 36.440,260.471 37.017,260.369 37.080 C 260.127 37.229,260.127 40.411,260.369 40.411 C 260.470 40.411,260.614 41.060,260.688 41.854 C 260.762 42.647,260.914 43.353,261.026 43.423 C 261.138 43.492,261.303 43.839,261.391 44.194 C 261.869 46.106,265.040 49.833,266.883 50.647 C 267.180 50.779,267.552 51.009,267.709 51.159 C 267.866 51.309,268.182 51.432,268.411 51.432 C 268.640 51.432,268.828 51.505,268.828 51.595 C 268.828 51.949,272.389 52.740,274.122 52.771 C 275.769 52.801,279.038 52.097,279.417 51.631 C 279.476 51.558,279.816 51.427,280.172 51.339 C 282.692 50.721,286.690 46.284,287.302 43.427 C 287.390 43.016,287.572 42.543,287.707 42.376 C 288.040 41.964,288.043 35.621,287.711 35.203 C 287.577 35.037,287.403 34.535,287.323 34.090 C 287.242 33.644,287.084 33.279,286.970 33.279 C 286.857 33.279,286.764 33.177,286.764 33.051 C 286.764 32.630,285.891 30.902,285.678 30.902 C 285.562 30.902,285.467 30.775,285.467 30.620 C 285.467 30.011,282.180 27.156,280.593 26.386 C 280.005 26.101,279.352 25.783,279.142 25.679 C 278.931 25.575,278.321 25.430,277.785 25.357 C 277.250 25.283,276.760 25.140,276.697 25.037 C 276.542 24.788,271.909 24.798,271.817 25.048 C 271.636 25.544,270.152 25.379,269.491 24.791 C 269.128 24.468,268.785 24.203,268.729 24.203 C 268.673 24.203,268.337 23.936,267.983 23.609 C 267.628 23.282,267.212 22.916,267.057 22.795 C 266.387 22.274,265.602 21.695,265.157 21.394 C 264.893 21.216,264.372 20.804,263.997 20.479 C 263.623 20.154,263.206 19.886,263.070 19.885 C 262.934 19.883,262.767 19.735,262.699 19.557 C 262.630 19.379,262.470 19.233,262.342 19.233 C 262.215 19.233,261.993 19.131,261.849 19.006 C 261.622 18.808,259.793 17.604,256.530 15.505 C 256.022 15.178,255.526 14.911,255.428 14.911 C 255.330 14.911,255.217 14.838,255.177 14.749 C 255.138 14.660,254.621 14.344,254.029 14.046 C 253.437 13.749,252.822 13.385,252.663 13.236 C 252.503 13.088,252.242 12.966,252.083 12.966 C 251.923 12.966,251.759 12.886,251.720 12.789 C 251.629 12.565,246.333 9.941,245.972 9.941 C 245.825 9.941,245.705 9.848,245.705 9.734 C 245.705 9.621,245.365 9.464,244.949 9.386 C 244.533 9.308,244.192 9.158,244.192 9.052 C 244.192 8.946,244.102 8.860,243.991 8.860 C 243.881 8.860,243.160 8.568,242.390 8.212 C 241.619 7.855,240.898 7.563,240.787 7.563 C 240.596 7.563,239.528 7.108,238.762 6.700 C 238.569 6.597,238.059 6.446,237.628 6.366 C 237.197 6.285,236.845 6.143,236.845 6.051 C 236.845 5.958,236.480 5.815,236.035 5.731 C 235.589 5.648,235.127 5.509,235.008 5.423 C 234.889 5.336,234.209 5.090,233.495 4.875 C 232.782 4.660,232.041 4.406,231.847 4.310 C 231.654 4.214,231.119 4.068,230.659 3.984 C 230.198 3.901,229.724 3.760,229.606 3.670 C 229.487 3.580,228.879 3.437,228.255 3.353 C 227.631 3.270,227.072 3.122,227.012 3.025 C 226.953 2.929,226.393 2.787,225.770 2.709 C 225.146 2.632,224.441 2.483,224.203 2.379 C 223.965 2.274,223.187 2.081,222.474 1.949 C 221.761 1.817,220.740 1.611,220.205 1.490 C 219.670 1.369,218.504 1.172,217.612 1.053 C 216.721 0.934,215.651 0.747,215.235 0.637 C 212.980 0.042,193.783 -0.240,187.898 0.235 M187.002 54.241 C 186.930 54.598,186.799 54.889,186.710 54.889 C 186.622 54.889,186.487 55.278,186.411 55.754 C 186.335 56.229,186.176 56.618,186.059 56.618 C 185.942 56.618,185.845 56.765,185.845 56.945 C 185.845 57.125,185.756 57.441,185.647 57.647 C 185.537 57.854,185.226 58.655,184.955 59.427 C 184.683 60.200,184.336 61.075,184.182 61.372 C 184.029 61.669,183.903 62.023,183.902 62.158 C 183.901 62.293,183.755 62.682,183.578 63.022 C 183.400 63.363,183.254 63.860,183.254 64.127 C 183.253 64.395,183.163 64.614,183.053 64.614 C 182.944 64.614,182.789 64.912,182.709 65.277 C 182.629 65.641,182.427 66.200,182.261 66.519 C 182.094 66.838,181.958 67.269,181.957 67.477 C 181.956 67.685,181.858 67.855,181.740 67.855 C 181.621 67.855,181.520 68.074,181.517 68.341 C 181.513 68.609,181.367 69.016,181.192 69.247 C 181.018 69.478,180.875 69.891,180.875 70.166 C 180.875 70.440,180.786 70.665,180.676 70.665 C 180.567 70.665,180.412 70.963,180.332 71.327 C 180.252 71.692,180.050 72.251,179.884 72.570 C 179.717 72.889,179.581 73.320,179.580 73.528 C 179.579 73.736,179.494 73.906,179.390 73.906 C 179.286 73.906,179.139 74.295,179.063 74.770 C 178.987 75.246,178.840 75.635,178.736 75.635 C 178.631 75.635,178.478 75.999,178.395 76.445 C 178.311 76.891,178.168 77.353,178.077 77.472 C 177.985 77.590,177.734 78.174,177.519 78.768 C 177.303 79.363,177.055 79.946,176.968 80.065 C 176.880 80.184,176.740 80.646,176.657 81.091 C 176.573 81.537,176.420 81.902,176.316 81.902 C 176.211 81.902,176.064 82.291,175.988 82.766 C 175.912 83.241,175.773 83.630,175.678 83.630 C 175.584 83.630,175.442 83.929,175.361 84.293 C 175.281 84.658,175.080 85.217,174.913 85.536 C 174.747 85.855,174.610 86.280,174.610 86.481 C 174.609 86.682,174.522 86.900,174.417 86.965 C 174.311 87.030,174.161 87.425,174.083 87.842 C 174.004 88.259,173.848 88.601,173.734 88.601 C 173.621 88.601,173.528 88.780,173.528 89.000 C 173.528 89.354,173.190 90.229,172.677 91.201 C 172.581 91.383,172.434 91.844,172.350 92.225 C 172.266 92.606,172.108 92.973,171.999 93.041 C 171.889 93.109,171.796 93.329,171.792 93.530 C 171.788 93.731,171.596 94.284,171.367 94.760 C 171.137 95.235,170.946 95.843,170.942 96.110 C 170.938 96.378,170.842 96.596,170.728 96.596 C 170.615 96.596,170.455 96.961,170.373 97.407 C 170.291 97.853,170.165 98.266,170.093 98.325 C 169.836 98.538,169.206 100.077,169.206 100.494 C 169.206 100.727,169.110 100.918,168.992 100.918 C 168.875 100.918,168.717 101.307,168.641 101.783 C 168.564 102.258,168.425 102.647,168.331 102.647 C 168.237 102.647,168.094 102.946,168.014 103.310 C 167.934 103.675,167.732 104.234,167.566 104.553 C 167.400 104.871,167.263 105.297,167.262 105.498 C 167.262 105.699,167.164 105.923,167.045 105.997 C 166.926 106.070,166.829 106.280,166.829 106.463 C 166.829 106.646,166.673 107.151,166.483 107.585 C 166.292 108.019,166.051 108.568,165.946 108.806 C 165.430 109.976,164.236 113.310,164.236 113.579 C 164.236 113.747,164.139 113.884,164.022 113.884 C 163.905 113.884,163.746 114.273,163.670 114.749 C 163.594 115.224,163.448 115.613,163.346 115.613 C 163.244 115.613,163.098 116.002,163.022 116.478 C 162.946 116.953,162.807 117.342,162.712 117.342 C 162.618 117.342,162.472 117.655,162.388 118.037 C 162.230 118.760,162.156 118.942,161.565 120.077 C 161.370 120.451,161.210 120.962,161.210 121.211 C 161.210 121.460,161.113 121.664,160.994 121.664 C 160.875 121.664,160.777 121.834,160.777 122.042 C 160.776 122.250,160.639 122.681,160.473 123.000 C 160.306 123.319,160.105 123.877,160.025 124.240 C 159.946 124.603,159.791 124.956,159.681 125.024 C 159.571 125.092,159.481 125.312,159.480 125.512 C 159.479 125.713,159.343 126.139,159.176 126.458 C 159.010 126.776,158.804 127.360,158.718 127.754 C 158.633 128.149,158.493 128.520,158.409 128.579 C 158.206 128.722,156.888 132.202,156.888 132.595 C 156.888 132.764,156.792 132.901,156.675 132.901 C 156.557 132.901,156.399 133.290,156.323 133.766 C 156.247 134.241,156.108 134.630,156.015 134.630 C 155.922 134.630,155.780 135.019,155.700 135.494 C 155.619 135.970,155.469 136.359,155.366 136.359 C 155.263 136.359,155.115 136.700,155.037 137.117 C 154.958 137.535,154.808 137.929,154.703 137.995 C 154.597 138.060,154.511 138.263,154.511 138.446 C 154.511 138.629,154.377 139.085,154.213 139.460 C 153.521 141.037,153.249 141.711,152.891 142.734 C 152.684 143.328,152.380 144.121,152.216 144.495 C 152.052 144.870,151.918 145.332,151.918 145.522 C 151.918 145.712,151.829 145.867,151.721 145.867 C 151.612 145.867,151.458 146.256,151.378 146.731 C 151.297 147.207,151.147 147.596,151.044 147.596 C 150.941 147.596,150.790 147.961,150.708 148.406 C 150.626 148.852,150.463 149.279,150.347 149.354 C 150.230 149.430,150.123 149.868,150.108 150.327 L 150.081 151.162 161.834 151.217 C 174.356 151.277,174.039 151.303,174.285 150.183 C 174.361 149.840,174.604 149.184,174.826 148.725 C 175.047 148.266,175.299 147.612,175.384 147.272 C 175.470 146.931,175.670 146.403,175.829 146.098 C 175.988 145.793,176.119 145.433,176.120 145.298 C 176.120 145.163,176.266 144.774,176.444 144.433 C 176.621 144.093,176.767 143.595,176.768 143.328 C 176.769 143.061,176.858 142.842,176.966 142.842 C 177.075 142.842,177.229 142.453,177.310 141.977 C 177.390 141.502,177.533 141.113,177.629 141.113 C 177.724 141.113,177.870 140.748,177.953 140.303 C 178.036 139.857,178.179 139.395,178.271 139.276 C 178.362 139.157,178.617 138.574,178.838 137.979 C 179.058 137.385,179.362 136.656,179.515 136.359 C 179.667 136.062,179.793 135.600,179.793 135.334 L 179.795 134.849 197.461 134.793 L 215.127 134.738 215.195 134.036 C 215.233 133.641,215.162 133.333,215.033 133.333 C 214.906 133.333,214.802 133.115,214.801 132.847 C 214.801 132.580,214.664 132.100,214.498 131.781 C 214.331 131.462,214.130 130.904,214.050 130.541 C 213.970 130.178,213.815 129.825,213.706 129.757 C 213.596 129.690,213.506 129.397,213.506 129.107 C 213.506 128.817,213.420 128.579,213.315 128.579 C 213.209 128.579,213.057 128.142,212.977 127.607 C 212.897 127.072,212.749 126.634,212.648 126.634 C 212.546 126.634,212.398 126.246,212.318 125.771 C 212.238 125.296,212.092 124.858,211.994 124.797 C 211.895 124.737,211.749 124.299,211.669 123.824 C 211.589 123.349,211.435 122.961,211.326 122.961 C 211.218 122.961,211.129 122.742,211.128 122.474 C 211.127 122.207,210.981 121.710,210.804 121.369 C 210.626 121.029,210.481 120.606,210.481 120.429 C 210.481 120.253,210.335 119.778,210.157 119.374 C 209.978 118.969,209.687 118.308,209.508 117.904 C 209.330 117.499,209.184 117.006,209.184 116.808 C 209.184 115.825,209.231 115.829,197.314 115.829 C 185.235 115.829,185.694 115.872,186.260 114.800 C 186.708 113.949,187.142 112.826,187.142 112.514 C 187.142 112.331,187.231 112.126,187.339 112.059 C 187.448 111.992,187.602 111.549,187.683 111.074 C 187.763 110.599,187.906 110.211,188.001 110.211 C 188.097 110.211,188.238 109.874,188.315 109.463 C 188.392 109.053,188.596 108.445,188.770 108.113 C 188.943 107.781,189.085 107.291,189.086 107.023 C 189.086 106.756,189.176 106.537,189.284 106.537 C 189.392 106.537,189.547 106.148,189.627 105.673 C 189.708 105.197,189.838 104.808,189.916 104.808 C 189.995 104.808,190.251 104.200,190.485 103.458 C 190.719 102.715,191.035 101.864,191.186 101.567 C 191.338 101.270,191.462 100.862,191.463 100.661 C 191.463 100.460,191.550 100.242,191.656 100.177 C 191.761 100.112,191.911 99.721,191.988 99.309 C 192.065 98.897,192.270 98.288,192.443 97.956 C 192.616 97.624,192.759 97.188,192.759 96.987 C 192.760 96.786,192.852 96.565,192.964 96.496 C 193.076 96.427,193.233 95.935,193.313 95.403 C 193.393 94.871,193.528 94.435,193.615 94.435 C 193.701 94.435,193.953 93.876,194.175 93.193 C 194.397 92.509,194.656 91.858,194.750 91.745 C 194.844 91.632,194.925 91.389,194.929 91.205 C 194.933 91.021,195.124 90.481,195.354 90.005 C 195.584 89.530,195.775 88.922,195.779 88.655 C 195.783 88.387,195.883 88.169,196.002 88.169 C 196.121 88.169,196.222 87.950,196.226 87.682 C 196.230 87.415,196.421 86.807,196.650 86.332 C 196.880 85.856,197.071 85.249,197.075 84.981 C 197.079 84.714,197.169 84.495,197.275 84.495 C 197.380 84.495,197.528 84.169,197.602 83.772 C 197.677 83.374,197.925 82.662,198.153 82.190 C 198.381 81.718,198.637 81.054,198.723 80.713 C 198.808 80.372,199.008 79.844,199.168 79.539 C 199.327 79.234,199.458 78.820,199.458 78.619 C 199.459 78.418,199.549 78.199,199.657 78.132 C 199.766 78.064,199.920 77.622,200.000 77.147 C 200.147 76.279,200.540 75.734,200.540 76.400 C 200.540 76.722,200.941 77.784,201.395 78.667 C 201.489 78.849,201.636 79.318,201.722 79.708 C 201.807 80.099,202.014 80.679,202.180 80.998 C 202.346 81.317,202.483 81.796,202.484 82.064 C 202.485 82.331,202.574 82.550,202.682 82.550 C 202.791 82.550,202.945 82.938,203.025 83.413 C 203.105 83.888,203.251 84.326,203.350 84.387 C 203.448 84.447,203.594 84.886,203.674 85.360 C 203.754 85.835,203.898 86.224,203.993 86.224 C 204.088 86.224,204.232 86.576,204.313 87.007 C 204.454 87.761,204.532 87.974,205.017 88.932 C 205.139 89.174,205.310 89.691,205.395 90.081 C 205.481 90.471,205.687 91.052,205.854 91.371 C 206.020 91.689,206.157 92.115,206.158 92.316 C 206.158 92.517,206.248 92.736,206.356 92.803 C 206.465 92.870,206.619 93.313,206.699 93.787 C 206.779 94.261,206.925 94.699,207.023 94.760 C 207.121 94.820,207.267 95.258,207.347 95.732 C 207.427 96.206,207.582 96.649,207.690 96.716 C 207.799 96.783,207.888 97.002,207.889 97.203 C 207.890 97.404,208.032 97.840,208.205 98.172 C 208.378 98.504,208.583 99.113,208.660 99.525 C 208.738 99.938,208.887 100.328,208.993 100.393 C 209.098 100.458,209.184 100.749,209.184 101.039 C 209.184 101.329,209.271 101.567,209.376 101.567 C 209.482 101.567,209.631 101.903,209.709 102.314 C 209.786 102.725,209.990 103.333,210.163 103.665 C 210.337 103.996,210.479 104.487,210.479 104.754 C 210.480 105.022,210.570 105.240,210.678 105.240 C 210.786 105.240,210.941 105.629,211.021 106.104 C 211.101 106.578,211.244 107.015,211.340 107.074 C 211.435 107.132,211.576 107.518,211.653 107.930 C 211.730 108.342,211.935 108.951,212.108 109.283 C 212.281 109.615,212.424 110.009,212.424 110.160 C 212.425 110.310,212.523 110.626,212.642 110.862 C 212.761 111.098,212.949 111.474,213.059 111.697 C 213.170 111.920,213.327 112.456,213.408 112.888 C 213.489 113.320,213.633 113.721,213.728 113.780 C 213.823 113.839,213.966 114.275,214.047 114.750 C 214.127 115.225,214.273 115.613,214.371 115.613 C 214.469 115.613,214.614 116.002,214.695 116.476 C 214.775 116.951,214.921 117.389,215.019 117.450 C 215.117 117.511,215.263 117.948,215.343 118.422 C 215.423 118.897,215.577 119.339,215.686 119.407 C 215.795 119.474,215.884 119.693,215.885 119.894 C 215.885 120.095,216.022 120.520,216.188 120.839 C 216.355 121.158,216.561 121.738,216.647 122.129 C 216.733 122.519,216.888 123.012,216.991 123.224 C 217.095 123.435,217.270 123.791,217.381 124.014 C 217.492 124.238,217.649 124.773,217.730 125.205 C 217.811 125.637,217.955 126.039,218.050 126.098 C 218.145 126.156,218.288 126.593,218.369 127.068 C 218.449 127.542,218.595 127.931,218.693 127.931 C 218.791 127.931,218.936 128.319,219.017 128.794 C 219.097 129.269,219.243 129.707,219.341 129.768 C 219.439 129.828,219.585 130.266,219.665 130.740 C 219.745 131.214,219.899 131.657,220.008 131.724 C 220.117 131.791,220.205 131.996,220.205 132.179 C 220.205 132.485,220.628 133.587,221.073 134.441 C 221.174 134.635,221.323 135.146,221.404 135.578 C 221.485 136.010,221.637 136.417,221.742 136.482 C 221.848 136.547,221.935 136.765,221.935 136.966 C 221.936 137.167,222.073 137.592,222.239 137.911 C 222.406 138.230,222.611 138.813,222.695 139.207 C 222.779 139.602,222.923 140.022,223.015 140.140 C 223.106 140.259,223.252 140.697,223.339 141.113 C 223.426 141.529,223.569 141.967,223.658 142.085 C 223.747 142.204,223.888 142.587,223.971 142.935 C 224.055 143.284,224.310 143.955,224.538 144.427 C 224.766 144.899,225.014 145.612,225.088 146.011 C 225.163 146.410,225.302 146.784,225.397 146.843 C 225.492 146.902,225.636 147.338,225.716 147.812 C 225.796 148.286,225.950 148.729,226.059 148.796 C 226.167 148.863,226.256 149.057,226.256 149.228 C 226.256 149.398,226.425 149.928,226.632 150.406 L 227.008 151.273 238.896 151.217 L 250.783 151.162 250.856 150.650 C 250.895 150.369,250.823 150.034,250.694 149.905 C 250.565 149.776,250.459 149.520,250.458 149.335 C 250.457 149.151,250.332 148.757,250.179 148.460 C 250.027 148.163,249.722 147.434,249.502 146.840 C 249.282 146.245,249.027 145.662,248.935 145.543 C 248.844 145.424,248.701 144.962,248.618 144.516 C 248.534 144.071,248.388 143.706,248.293 143.706 C 248.198 143.706,248.054 143.317,247.974 142.842 C 247.894 142.366,247.744 141.977,247.641 141.977 C 247.538 141.977,247.389 141.636,247.311 141.219 C 247.233 140.801,247.083 140.407,246.977 140.341 C 246.872 140.276,246.785 140.059,246.784 139.858 C 246.783 139.657,246.647 139.231,246.480 138.912 C 246.314 138.594,246.113 138.036,246.033 137.672 C 245.953 137.309,245.798 136.957,245.688 136.889 C 245.579 136.821,245.488 136.601,245.488 136.400 C 245.487 136.199,245.341 135.756,245.163 135.416 C 244.986 135.075,244.841 134.662,244.841 134.497 C 244.841 134.332,244.768 134.197,244.679 134.196 C 244.589 134.195,244.273 133.418,243.976 132.469 C 243.679 131.520,243.363 130.742,243.274 130.742 C 243.185 130.741,243.109 130.570,243.104 130.362 C 243.100 130.154,242.909 129.595,242.680 129.119 C 242.450 128.644,242.259 128.091,242.255 127.890 C 242.251 127.689,242.150 127.464,242.031 127.391 C 241.912 127.317,241.815 127.093,241.814 126.892 C 241.813 126.691,241.667 126.248,241.490 125.907 C 241.312 125.567,241.167 125.154,241.167 124.989 C 241.167 124.824,241.078 124.689,240.970 124.689 C 240.861 124.689,240.707 124.300,240.627 123.825 C 240.546 123.350,240.400 122.961,240.303 122.961 C 240.205 122.961,240.059 122.572,239.978 122.096 C 239.898 121.621,239.744 121.232,239.635 121.232 C 239.527 121.232,239.438 121.062,239.437 120.854 C 239.436 120.646,239.299 120.215,239.133 119.896 C 238.967 119.577,238.765 119.019,238.686 118.656 C 238.606 118.292,238.451 117.940,238.341 117.872 C 238.231 117.804,238.141 117.584,238.140 117.383 C 238.139 117.182,237.994 116.739,237.816 116.399 C 237.639 116.058,237.493 115.653,237.493 115.498 C 237.493 115.344,237.420 115.185,237.331 115.145 C 237.242 115.105,236.941 114.392,236.662 113.560 C 236.383 112.728,236.019 111.741,235.852 111.367 C 235.685 110.992,235.548 110.530,235.548 110.340 C 235.548 110.150,235.451 109.995,235.332 109.995 C 235.213 109.995,235.116 109.824,235.115 109.616 C 235.114 109.408,234.977 108.977,234.811 108.659 C 234.645 108.340,234.443 107.782,234.364 107.418 C 234.284 107.055,234.129 106.703,234.019 106.635 C 233.909 106.567,233.819 106.347,233.818 106.146 C 233.817 105.945,233.672 105.502,233.494 105.162 C 233.317 104.821,233.171 104.408,233.171 104.243 C 233.171 104.079,233.083 103.944,232.974 103.944 C 232.866 103.944,232.711 103.555,232.631 103.079 C 232.551 102.604,232.407 102.215,232.312 102.215 C 232.217 102.215,232.076 101.879,231.999 101.468 C 231.922 101.057,231.717 100.449,231.544 100.117 C 231.371 99.785,231.228 99.407,231.228 99.277 C 231.226 99.060,230.806 98.053,230.376 97.238 C 230.279 97.055,230.132 96.595,230.049 96.214 C 229.965 95.833,229.807 95.465,229.697 95.398 C 229.587 95.330,229.498 95.086,229.498 94.855 C 229.498 94.624,229.409 94.435,229.300 94.435 C 229.192 94.435,229.038 94.046,228.957 93.571 C 228.877 93.096,228.731 92.707,228.633 92.707 C 228.535 92.707,228.389 92.318,228.309 91.842 C 228.229 91.367,228.083 90.978,227.985 90.978 C 227.887 90.978,227.741 90.589,227.661 90.113 C 227.580 89.638,227.426 89.249,227.318 89.249 C 227.209 89.249,227.120 89.079,227.119 88.871 C 227.118 88.663,226.973 88.214,226.795 87.874 C 226.617 87.533,226.472 87.159,226.472 87.042 C 226.472 86.925,226.336 86.523,226.170 86.148 C 226.004 85.774,225.693 84.957,225.479 84.333 C 225.265 83.709,225.023 83.198,224.941 83.198 C 224.859 83.198,224.723 82.834,224.640 82.388 C 224.557 81.942,224.414 81.480,224.322 81.361 C 224.231 81.243,223.924 80.465,223.640 79.633 C 223.355 78.801,223.059 78.071,222.980 78.011 C 222.902 77.952,222.770 77.538,222.686 77.093 C 222.603 76.648,222.448 76.283,222.342 76.283 C 222.237 76.283,222.150 76.128,222.150 75.938 C 222.150 75.748,221.993 75.237,221.800 74.803 C 221.608 74.369,221.316 73.708,221.152 73.333 C 220.988 72.959,220.854 72.497,220.854 72.307 C 220.854 72.117,220.769 71.961,220.665 71.961 C 220.561 71.961,220.414 71.572,220.338 71.097 C 220.262 70.621,220.115 70.232,220.011 70.232 C 219.906 70.232,219.753 69.868,219.670 69.422 C 219.586 68.976,219.446 68.514,219.358 68.395 C 219.270 68.277,218.875 67.304,218.480 66.234 C 218.086 65.165,217.692 64.241,217.606 64.182 C 217.521 64.122,217.380 63.751,217.295 63.357 C 217.209 62.962,217.003 62.379,216.837 62.060 C 216.670 61.741,216.534 61.316,216.533 61.115 C 216.532 60.914,216.445 60.696,216.340 60.631 C 216.235 60.566,216.084 60.171,216.006 59.754 C 215.928 59.337,215.783 58.995,215.685 58.995 C 215.587 58.995,215.444 58.606,215.368 58.131 C 215.292 57.655,215.146 57.266,215.044 57.266 C 214.942 57.266,214.796 56.877,214.720 56.402 C 214.644 55.927,214.506 55.538,214.413 55.538 C 214.320 55.538,214.127 55.100,213.984 54.565 L 213.724 53.593 200.428 53.593 L 187.131 53.593 187.002 54.241 " stroke="none" fill="#142c4c" fill-rule="evenodd"></path><path id="path1" d="" stroke="none" fill="#182c4c" fill-rule="evenodd"></path><path id="path2" d="" stroke="none" fill="#182c4c" fill-rule="evenodd"></path><path id="path3" d="" stroke="none" fill="#182c4c" fill-rule="evenodd"></path><path id="path4" d="" stroke="none" fill="#182c4c" fill-rule="evenodd"></path></g></svg>