<svg xmlns="http://www.w3.org/2000/svg" viewBox="0 0 80.46 43"><defs><style>.cls-1{fill:#4d63ac;}</style></defs><title>PoweredbyDSN (5)</title><g id="Layer_2" data-name="Layer 2"><g id="Layer_1-2" data-name="Layer 1"><g id="PoweredbyDSN"><g id="Layer_1-2-2" data-name="Layer 1-2"><path class="cls-1" d="M21.44,13.46a3.76,3.76,0,0,0,3.35-2.86c.3-.86.49-1.76.79-2.61a3.52,3.52,0,0,1,4.07-2.48A8,8,0,0,1,33.88,7.4,23.06,23.06,0,0,0,43.46,12c.89.19,1.8.15,2.84.33a3.74,3.74,0,0,1-3.17,1.17,17.15,17.15,0,0,1-7.85-3,32.66,32.66,0,0,0-3.63-2.3c-2.44-1.18-4-.63-5.26,1.77a5.66,5.66,0,0,0-.34.7,5.23,5.23,0,0,1-4.59,3.53h0v-.78Z"/><path class="cls-1" d="M21.44,3.51l1.12,2.26s2,.08,2.84.2c-.78.72-1.71,1.33-2.2,1.81.13.78.49,2,.64,2.75C23.06,10,21.43,9,21.43,9h0V3.51Z"/><path class="cls-1" d="M21.45,29.91c-.69-.51-1.4-1-2.07-1.57-1.36-1.06-1.29-2.24.22-3.05.64-.34,1.24-.78,1.85-1.15h0v5.78Z"/><path class="cls-1" d="M21.45,37c-.56-.52-1.15-1-1.7-1.57a1.67,1.67,0,0,1,0-2.78c.52-.51,1.13-.93,1.69-1.39h0V37Z"/><path class="cls-1" d="M41.56,14.38c-1.17-.49-2.1-.79-3-1.27a62.58,62.58,0,0,1-7.14-3.8C29.51,8,28,8.52,26.94,10.57c-.3.58-.59,1.16-.86,1.76-.87,1.92-2.51,2.47-4.36,2.59-.11-.12-.15-.15-.16-.19a3.89,3.89,0,0,1-.12-.49,5.81,5.81,0,0,1-4.71-4.14,3.81,3.81,0,0,0-.35-.7,3.26,3.26,0,0,0-4.33-1.57A12.85,12.85,0,0,0,9.52,9.19a25.44,25.44,0,0,1-5.16,3c-.84.32-1.71.62-2.66,1-3,7.79-2.08,15,3,21.66,3.84,5,11.17,8,16.76,8.14a6.14,6.14,0,0,1-2.57-2.7c-.37-1.26.62-1.95,1.45-3a16,16,0,0,1-1.72-1.46c-1.24-1.36-1.22-2.35-.06-3.81.41-.5,1-.84,1.33-1.46-.47-.84-1.38-1.18-2-1.79a2.42,2.42,0,0,1-.36-3.39l.09-.1A4.84,4.84,0,0,1,19.1,24c.24-.14.61-.19.56-.66a4,4,0,0,0-1.29-.79,13.35,13.35,0,0,1-3.07-2c-1.44-1.34-1.5-3.8-.12-4.71a3.43,3.43,0,0,1,4.39.64,5.13,5.13,0,0,0,1.2,1.17,1.23,1.23,0,0,1,.61,1.07C20.6,20,19.81,20,19,18.86c-.34-.5-.59-1.08-1.19-1.34s-1.22-.35-1.67.22a1.29,1.29,0,0,0,0,1.69,4,4,0,0,0,.78.71A15.29,15.29,0,0,0,20,21.8,2.71,2.71,0,0,1,21.44,23l.06,1.19a11.66,11.66,0,0,0,1.83,1.18A2,2,0,0,1,24.58,27c-.49,1.48-2.1,1.87-3.07,2.92h0v1.31c.61.47,1.2,1,1.77,1.49a1.56,1.56,0,0,1,0,2.58c-.57.58-1.18,1.12-1.77,1.68h0v1.3c-.69.39-1.5,1.05-1.5,1.91,0,1.1,1.12,2,1.57,2.74a5.71,5.71,0,0,0,2.34-2.15c.69-1.34-.16-2.29-1.06-3.14a12.07,12.07,0,0,1,1.46-1.57c1.35-1.57,1.33-2.68-.09-4.23a5.27,5.27,0,0,1-1.12-1.23,14.18,14.18,0,0,1,2-1.81,2.35,2.35,0,0,0,.5-3.29l-.16-.18A4.5,4.5,0,0,0,24,24.05c-.24-.15-.6-.19-.62-.7.93-.51,1.92-1,2.88-1.57,2.51-1.48,3.08-3.14,2-5.8.36-.18.79,0,1.16-.25,0-.39-.61-.66-.15-1.37,1.42.22,2.68,1.47,4.31,1.4-.1-.66-.87-.79-1-1.41,1.57.3,2.9,1.21,4.57.9-.47-.63-1.27-.79-1.57-1.57C37.58,14,39.36,14.8,41.56,14.38ZM23,39.81c.26,1.49-1.06,2.46-1.45,3.14,0-1.25,0-3,0-4.63h0C22.12,38.62,22.83,39,23,39.81ZM21.56,16A4.35,4.35,0,0,1,23.62,16a3.61,3.61,0,0,1-2,2.05A4.94,4.94,0,0,1,21.56,16Zm4.78,3.8a11.52,11.52,0,0,1-2.66,1.63,13.45,13.45,0,0,0-2.15,1.15V19.46c.57.07,1.07.46,1.64.22s.78-.78,1.1-1.24a3.62,3.62,0,0,1,.22-.32,1.58,1.58,0,0,1,2.17-.45C27.26,18.19,27.13,19.1,26.34,19.82Z"/><path class="cls-1" d="M21.44,9c-.72.37-1.75,1.07-2.3,1.39l.73-2.59L17.52,6h2.86c.21-.3.72-1.72,1.08-2.41h0c0-1-.08-2.71-.08-3.54C14.82,0,4.91,5.36,3.13,10.77a3,3,0,0,0,1.33-.44,22.17,22.17,0,0,0,4.2-2.61,11.23,11.23,0,0,1,3.51-2C14.83,5,16.69,6,17.51,8.62a23,23,0,0,0,.84,2.59,3.24,3.24,0,0,0,3,2.22C21.44,12,21.44,9.67,21.44,9Z"/><path class="cls-1" d="M43,32c0,.13,0,.19-.11.19-.3,0-.66,0-1.07,0s-.72,0-1,0-.59,0-.94,0-.71,0-1,0c-.07,0-.11-.06-.11-.19s0-.17.12-.18a3,3,0,0,0,.83-.18.61.61,0,0,0,.35-.31,1.8,1.8,0,0,0,.08-.63v-3H35v3a1.8,1.8,0,0,0,.08.63.61.61,0,0,0,.35.31,3,3,0,0,0,.84.18c.07,0,.11.07.11.18s0,.19-.11.19c-.3,0-.63,0-1,0s-.67,0-.94,0-.6,0-1,0-.77,0-1.07,0c-.07,0-.11-.06-.11-.19s0-.17.11-.18a2.53,2.53,0,0,0,1.1-.3,1,1,0,0,0,.28-.82V24.42a1.33,1.33,0,0,0-.11-.66.78.78,0,0,0-.41-.3,4.47,4.47,0,0,0-.86-.18c-.07,0-.11-.06-.11-.18s0-.18.11-.18c.3,0,.65,0,1.07,0s.72,0,1,0,.59,0,.94,0,.71,0,1,0c.07,0,.11.06.11.18s0,.18-.11.18a4,4,0,0,0-.79.16.78.78,0,0,0-.37.27,1.56,1.56,0,0,0-.11.71v2.87h5.09V24.42a1.86,1.86,0,0,0-.08-.64.58.58,0,0,0-.35-.31,3.29,3.29,0,0,0-.84-.19c-.07,0-.11-.06-.11-.18s0-.18.11-.18c.3,0,.63,0,1,0s.66,0,.94,0,.6,0,1,0,.77,0,1.07,0c.07,0,.11.06.11.18s0,.18-.11.18a4.47,4.47,0,0,0-.86.18.78.78,0,0,0-.41.3,1.3,1.3,0,0,0-.12.66v6.27a1,1,0,0,0,.29.82,2.53,2.53,0,0,0,1.1.3C42.94,31.82,43,31.88,43,32Z"/><path class="cls-1" d="M49.49,32c0,.13,0,.19-.11.19-.29,0-.65,0-1.06,0s-.72,0-1,0-.6,0-1,0-.77,0-1.07,0c-.07,0-.11-.06-.11-.19s0-.17.11-.18a2.47,2.47,0,0,0,1.09-.3c.2-.13.29-.41.29-.82V24.42a1.45,1.45,0,0,0-.11-.66.78.78,0,0,0-.41-.3,4.65,4.65,0,0,0-.86-.18c-.07,0-.11-.06-.11-.18s0-.18.11-.18c.3,0,.66,0,1.07,0s.72,0,1,0,.6,0,1,0,.77,0,1.06,0c.07,0,.11.06.11.18s0,.18-.11.18a4.51,4.51,0,0,0-.85.18.78.78,0,0,0-.41.3,1.42,1.42,0,0,0-.11.66v6.27a1.46,1.46,0,0,0,.11.65.84.84,0,0,0,.41.3,3.68,3.68,0,0,0,.85.17C49.45,31.82,49.49,31.88,49.49,32Z"/><path class="cls-1" d="M59.87,25.63a2.53,2.53,0,0,1-.9,2,3.27,3.27,0,0,1-2.24.8c-.53,0-1,0-1.56-.07v2.36a1.28,1.28,0,0,0,.11.65.79.79,0,0,0,.41.3,3.68,3.68,0,0,0,.85.17c.07,0,.1.07.1.18s0,.19-.1.19c-.3,0-.65,0-1.06,0s-.72,0-1,0-.61,0-1,0-.77,0-1.07,0c-.07,0-.11-.06-.11-.19s0-.17.11-.18a2.53,2.53,0,0,0,1.1-.3,1,1,0,0,0,.29-.82V24.42a1.3,1.3,0,0,0-.12-.66.74.74,0,0,0-.41-.3,4.47,4.47,0,0,0-.86-.18c-.07,0-.11-.06-.11-.18s0-.18.11-.18c.3,0,.65,0,1.07,0s.72,0,1,0,.6,0,1,0,.76,0,1.05,0a3.87,3.87,0,0,1,2.49.69A2.48,2.48,0,0,1,59.87,25.63Zm-1.47,0A2.46,2.46,0,0,0,57.87,24a1.75,1.75,0,0,0-1.39-.6,3.28,3.28,0,0,0-.8.08.7.7,0,0,0-.4.26,1.47,1.47,0,0,0-.11.72v3.06a.43.43,0,0,0,.17.39,2.11,2.11,0,0,0,.78.09,2.17,2.17,0,0,0,1.68-.62A2.34,2.34,0,0,0,58.4,25.63Z"/><path class="cls-1" d="M69.74,32c0,.13,0,.19-.1.19-.31,0-.66,0-1,0s-.62,0-.86,0-.6,0-1,0-.78,0-1.08,0c-.07,0-.11-.06-.11-.18s0-.19.08-.19a2.22,2.22,0,0,0,.85-.15.43.43,0,0,0,.26-.41,1.85,1.85,0,0,0-.13-.55l-.76-2.24H63.12l-.76,2.07a2.08,2.08,0,0,0-.15.64c0,.39.36.61,1.08.64.05,0,.08.07.08.19s0,.18-.11.18c-.27,0-.56,0-.88,0s-.58,0-.82,0a7,7,0,0,0-.72,0c-.3,0-.56,0-.77,0S60,32.12,60,32s.05-.19.15-.2a1.62,1.62,0,0,0,.88-.3,3.07,3.07,0,0,0,.67-1l3.11-7.66c0-.07.09-.1.19-.1s.17,0,.2.1l2.75,7.66a2,2,0,0,0,.63.95,2.12,2.12,0,0,0,1.06.38C69.7,31.82,69.74,31.88,69.74,32Zm-4-3.95-1.17-3.4L63.28,28Z"/><path class="cls-1" d="M80.46,32c0,.13,0,.19-.11.19-.3,0-.65,0-1,0s-.61,0-.85,0-.61,0-1,0-.78,0-1.07,0c-.08,0-.11-.06-.11-.18s0-.19.08-.19a2.27,2.27,0,0,0,.85-.15.45.45,0,0,0,.26-.41,1.85,1.85,0,0,0-.13-.55l-.76-2.24H73.83l-.76,2.07a2,2,0,0,0-.14.64c0,.39.36.61,1.07.64.06,0,.09.07.09.19s0,.18-.11.18c-.27,0-.56,0-.89,0s-.58,0-.82,0a6.71,6.71,0,0,0-.71,0c-.31,0-.56,0-.78,0-.06,0-.1-.06-.1-.17s0-.19.16-.2a1.55,1.55,0,0,0,.87-.3,2.79,2.79,0,0,0,.67-1l3.12-7.66c0-.07.09-.1.19-.1s.17,0,.2.1l2.75,7.66a2,2,0,0,0,.63.95,2.08,2.08,0,0,0,1.06.38C80.42,31.82,80.46,31.88,80.46,32Zm-4-3.95-1.17-3.4L74,28Z"/></g></g></g></g></svg>